<mxfile host="65bd71144e">
    <diagram id="Z62USNvD5zNqX3UyL370" name="Page-1">
        <mxGraphModel dx="948" dy="713" grid="1" gridSize="10" guides="1" tooltips="1" connect="1" arrows="1" fold="1" page="1" pageScale="1" pageWidth="850" pageHeight="1100" math="0" shadow="0">
            <root>
                <mxCell id="0"/>
                <mxCell id="1" parent="0"/>
                <mxCell id="13" value="Duck Behaviors" style="ellipse;whiteSpace=wrap;html=1;" vertex="1" parent="1">
                    <mxGeometry x="270" y="60" width="310" height="400" as="geometry"/>
                </mxCell>
                <mxCell id="2" value="Duck Class" style="html=1;" vertex="1" parent="1">
                    <mxGeometry x="90" y="170" width="110" height="50" as="geometry"/>
                </mxCell>
                <mxCell id="3" value="Flying Behavior" style="html=1;" vertex="1" parent="1">
                    <mxGeometry x="350" y="110" width="110" height="50" as="geometry"/>
                </mxCell>
                <mxCell id="4" value="Flying Behavior" style="html=1;" vertex="1" parent="1">
                    <mxGeometry x="360" y="120" width="110" height="50" as="geometry"/>
                </mxCell>
                <mxCell id="5" value="Flying Behavior" style="html=1;" vertex="1" parent="1">
                    <mxGeometry x="370" y="130" width="110" height="50" as="geometry"/>
                </mxCell>
                <mxCell id="6" value="Flying Behavior" style="html=1;" vertex="1" parent="1">
                    <mxGeometry x="380" y="140" width="110" height="50" as="geometry"/>
                </mxCell>
                <mxCell id="7" value="Flying Behavior" style="html=1;" vertex="1" parent="1">
                    <mxGeometry x="390" y="150" width="110" height="50" as="geometry"/>
                </mxCell>
                <mxCell id="8" value="Flying Behavior" style="html=1;" vertex="1" parent="1">
                    <mxGeometry x="350" y="330" width="110" height="50" as="geometry"/>
                </mxCell>
                <mxCell id="9" value="Flying Behavior" style="html=1;" vertex="1" parent="1">
                    <mxGeometry x="360" y="340" width="110" height="50" as="geometry"/>
                </mxCell>
                <mxCell id="10" value="Flying Behavior" style="html=1;" vertex="1" parent="1">
                    <mxGeometry x="370" y="350" width="110" height="50" as="geometry"/>
                </mxCell>
                <mxCell id="11" value="Flying Behavior" style="html=1;" vertex="1" parent="1">
                    <mxGeometry x="380" y="360" width="110" height="50" as="geometry"/>
                </mxCell>
                <mxCell id="12" value="Quacking Behavior" style="html=1;" vertex="1" parent="1">
                    <mxGeometry x="390" y="370" width="110" height="50" as="geometry"/>
                </mxCell>
                <mxCell id="17" value="" style="curved=1;endArrow=classic;html=1;exitX=0.418;exitY=-0.1;exitDx=0;exitDy=0;exitPerimeter=0;entryX=0.435;entryY=0.003;entryDx=0;entryDy=0;entryPerimeter=0;startArrow=none;" edge="1" parent="1" source="18" target="13">
                    <mxGeometry width="50" height="50" relative="1" as="geometry">
                        <mxPoint x="140" y="130" as="sourcePoint"/>
                        <mxPoint x="190" y="80" as="targetPoint"/>
                        <Array as="points">
                            <mxPoint x="180" y="80"/>
                            <mxPoint x="260" y="20"/>
                        </Array>
                    </mxGeometry>
                </mxCell>
                <mxCell id="19" value="" style="curved=1;endArrow=none;html=1;exitX=0.418;exitY=-0.1;exitDx=0;exitDy=0;exitPerimeter=0;entryX=0.435;entryY=0.003;entryDx=0;entryDy=0;entryPerimeter=0;" edge="1" parent="1" source="2" target="18">
                    <mxGeometry width="50" height="50" relative="1" as="geometry">
                        <mxPoint x="135.98000000000002" y="165" as="sourcePoint"/>
                        <mxPoint x="404.8499999999999" y="61.200000000000045" as="targetPoint"/>
                        <Array as="points">
                            <mxPoint x="145" y="120"/>
                        </Array>
                    </mxGeometry>
                </mxCell>
                <mxCell id="18" value="Pull out what varies" style="text;html=1;strokeColor=none;fillColor=none;align=center;verticalAlign=middle;whiteSpace=wrap;rounded=0;" vertex="1" parent="1">
                    <mxGeometry x="140" y="100" width="60" height="30" as="geometry"/>
                </mxCell>
            </root>
        </mxGraphModel>
    </diagram>
</mxfile>